<?xml version="1.0" encoding="utf-8"?>
<!-- Generator: Adobe Illustrator 21.0.1, SVG Export Plug-In . SVG Version: 6.00 Build 0)  -->
<svg version="1.1" xmlns="http://www.w3.org/2000/svg" xmlns:xlink="http://www.w3.org/1999/xlink" x="0px" y="0px"
	 viewBox="0 0 600 800" style="enable-background:new 0 0 600 800;" xml:space="preserve">
<style type="text/css">
	.st0{display:none;fill:#343A3D;}
	.st1{fill:#343A3D;}
	.st2{fill:#0F6B87;}
	.st3{fill:#1FC0FF;}
	.st4{display:none;}
	.st5{font-family:'Roboto-Thin';}
	.st6{font-size:74.186px;}
</style>
<g id="Layer_2">
</g>
<g id="Layer_1">
	<path class="st0" d="M414.5,557h-255c-27.5,0-50-22.5-50-50V252c0-27.5,22.5-50,50-50h255c27.5,0,50,22.5,50,50v255
		C464.5,534.5,442,557,414.5,557z"/>
	<path class="st1" d="M405.2,536.3h-215c-33,0-60-27-60-60v-215c0-33,27-60,60-60h215c33,0,60,27,60,60v215
		C465.2,509.3,438.2,536.3,405.2,536.3z"/>
	<path class="st2" d="M237.9,430l-1.4-1.4c-19.4-19.4-19.4-51.3,0-70.7l141.4-141.4c19.4-19.4,51.3-19.4,70.7,0l1.4,1.4
		c19.4,19.4,19.4,51.3,0,70.7L308.6,430C289.1,449.5,257.3,449.5,237.9,430z"/>
	<path class="st3" d="M146.7,521.2l-1.4-1.4c-19.4-19.4-19.4-51.3,0-70.7l141.5-141.5c19.4-19.4,51.3-19.4,70.7,0l1.4,1.4
		c19.4,19.4,19.4,51.3,0,70.7L217.4,521.2C197.9,540.7,166.1,540.7,146.7,521.2z"/>
	<path class="st1" d="M287.5,379L287.5,379c-1.7-1.7-1.7-4.4,0-6l30.1-30.1c1.7-1.7,4.4-1.7,6,0l0,0c1.7,1.7,1.7,4.4,0,6L293.5,379
		C291.9,380.6,289.2,380.6,287.5,379z"/>
	<text transform="matrix(1 0 0 1 173.9998 621.8616)" class="st4 st5 st6">StrapUp</text>
</g>
</svg>
